<svg xmlns="http://www.w3.org/2000/svg" viewBox="0 0 200 200" role="img" aria-label="Merchant Odalia, neutral">
  <rect width="200" height="200" rx="14" fill="#4a3826"/>
  <rect x="6" y="6" width="188" height="188" rx="10" fill="#5d4730"/>
  <!-- shoulders / robe -->
  <path d="M 30 200 C 35 150 70 138 100 138 C 130 138 165 150 170 200 Z" fill="#8c3b2e"/>
  <path d="M 84 142 L 100 168 L 116 142 L 108 138 L 100 150 L 92 138 Z" fill="#e3b23c"/>
  <!-- neck & face -->
  <rect x="88" y="112" width="24" height="26" fill="#d9a066"/>
  <ellipse cx="100" cy="88" rx="34" ry="38" fill="#e8b378"/>
  <!-- headscarf -->
  <path d="M 62 84 C 58 42 88 34 100 34 C 112 34 142 42 138 84 C 138 62 120 52 100 52 C 80 52 62 62 62 84 Z" fill="#c96f4a"/>
  <path d="M 62 84 C 62 70 74 56 100 56 C 126 56 138 70 138 84 C 138 74 124 64 100 64 C 76 64 62 74 62 84 Z" fill="#e3b23c" opacity="0.9"/>
  <!-- earrings -->
  <circle cx="64" cy="98" r="4" fill="#e3b23c"/>
  <circle cx="136" cy="98" r="4" fill="#e3b23c"/>
  <!-- eyes: neutral -->
  <g fill="#3b2a17">
    <ellipse cx="86" cy="88" rx="4.5" ry="5"/>
    <ellipse cx="114" cy="88" rx="4.5" ry="5"/>
  </g>
  <path d="M 78 76 Q 86 72 94 76" fill="none" stroke="#7a5233" stroke-width="3" stroke-linecap="round"/>
  <path d="M 106 76 Q 114 72 122 76" fill="none" stroke="#7a5233" stroke-width="3" stroke-linecap="round"/>
  <!-- nose & mouth: calm -->
  <path d="M 100 92 Q 97 100 100 103" fill="none" stroke="#c68a52" stroke-width="3" stroke-linecap="round"/>
  <path d="M 90 112 Q 100 116 110 112" fill="none" stroke="#8c5a34" stroke-width="3.5" stroke-linecap="round"/>
</svg>
