<svg xmlns="http://www.w3.org/2000/svg" viewBox="0 0 1200 800" role="img" aria-label="Illustrated world map of the Duskharbor coast">
  <defs>
    <radialGradient id="vignette" cx="50%" cy="50%" r="75%">
      <stop offset="70%" stop-color="#000" stop-opacity="0"/>
      <stop offset="100%" stop-color="#3b2a17" stop-opacity="0.45"/>
    </radialGradient>
    <pattern id="waves" width="70" height="26" patternUnits="userSpaceOnUse">
      <path d="M0 13 Q 17 4 35 13 T 70 13" fill="none" stroke="#7c9db0" stroke-width="2" opacity="0.5"/>
    </pattern>
  </defs>

  <!-- sea -->
  <rect width="1200" height="800" fill="#a8c3cf"/>
  <rect width="1200" height="800" fill="url(#waves)"/>

  <!-- landmass -->
  <path d="M 120 640
           C 60 520 110 420 190 360
           C 240 320 250 240 340 200
           C 430 160 560 190 660 150
           C 780 105 930 130 1010 210
           C 1090 290 1130 380 1090 470
           C 1060 540 1100 610 1030 660
           C 940 725 780 690 660 710
           C 540 730 400 760 300 720
           C 220 690 160 700 120 640 Z"
        fill="#e8d9ac" stroke="#8a6d3b" stroke-width="6" stroke-linejoin="round"/>
  <path d="M 120 640
           C 60 520 110 420 190 360
           C 240 320 250 240 340 200
           C 430 160 560 190 660 150
           C 780 105 930 130 1010 210
           C 1090 290 1130 380 1090 470
           C 1060 540 1100 610 1030 660
           C 940 725 780 690 660 710
           C 540 730 400 760 300 720
           C 220 690 160 700 120 640 Z"
        fill="none" stroke="#c8b481" stroke-width="16" stroke-linejoin="round" opacity="0.5"/>

  <!-- river -->
  <path d="M 640 160 C 620 260 700 320 660 420 C 630 495 680 560 640 700"
        fill="none" stroke="#8fb3c4" stroke-width="10" stroke-linecap="round" opacity="0.85"/>

  <!-- mountains -->
  <g stroke="#7a5f33" stroke-width="4" fill="#d9c48f" stroke-linejoin="round">
    <path d="M 780 250 l 45 -70 l 45 70 z"/>
    <path d="M 850 275 l 40 -60 l 40 60 z"/>
    <path d="M 720 290 l 38 -55 l 38 55 z"/>
  </g>
  <g fill="#fdf6e3">
    <path d="M 810 205 l 15 -25 l 15 25 l -12 -6 z"/>
    <path d="M 878 235 l 12 -20 l 12 20 l -10 -5 z"/>
  </g>

  <!-- forest -->
  <g fill="#93a86a" stroke="#5f7340" stroke-width="3">
    <circle cx="300" cy="420" r="26"/><circle cx="345" cy="395" r="22"/>
    <circle cx="260" cy="455" r="20"/><circle cx="330" cy="450" r="24"/>
    <circle cx="385" cy="430" r="18"/>
  </g>

  <!-- road: Merchant Guild up to the Inner Archives -->
  <path d="M 455 540 C 520 480 570 420 610 370 C 640 330 655 305 668 288"
        fill="none" stroke="#8a6d3b" stroke-width="6" stroke-dasharray="2 18" stroke-linecap="round"/>
  <!-- unopened trail: Inner Archives toward the locked peaks -->
  <path d="M 690 280 C 748 294 816 315 872 338"
        fill="none" stroke="#8a6d3b" stroke-width="6" stroke-dasharray="2 18" stroke-linecap="round" opacity="0.35"/>

  <!-- harbor town near guild -->
  <g stroke="#7a5f33" stroke-width="3" fill="#c96f4a">
    <rect x="420" y="565" width="26" height="20"/>
    <rect x="452" y="572" width="22" height="16"/>
    <path d="M 417 566 l 16 -14 l 16 14 z" fill="#a34d2e"/>
    <path d="M 450 573 l 13 -11 l 13 11 z" fill="#a34d2e"/>
  </g>

  <!-- compass rose -->
  <g transform="translate(1080,120)" stroke="#6b4f26" fill="#fdf6e3">
    <circle r="34" fill="#e8d9ac" stroke-width="3"/>
    <path d="M 0 -28 L 7 0 L 0 28 L -7 0 Z" stroke-width="2"/>
    <path d="M -28 0 L 0 -7 L 28 0 L 0 7 Z" stroke-width="2" fill="#c96f4a"/>
    <text y="-38" text-anchor="middle" font-family="Georgia, serif" font-size="18" fill="#6b4f26" stroke="none">N</text>
  </g>

  <!-- labels -->
  <g font-family="Georgia, serif" fill="#6b4f26" font-style="italic">
    <text x="180" y="180" font-size="30" letter-spacing="4">The Duskharbor Coast</text>
    <text x="860" y="320" font-size="18">Cinder Peaks</text>
    <text x="270" y="510" font-size="18">Whisperwood</text>
    <text x="150" y="700" font-size="20" opacity="0.7">~ Sea of Ledgers ~</text>
  </g>

  <rect width="1200" height="800" fill="url(#vignette)"/>
  <rect x="10" y="10" width="1180" height="780" fill="none" stroke="#6b4f26" stroke-width="4"/>
  <rect x="20" y="20" width="1160" height="760" fill="none" stroke="#6b4f26" stroke-width="1.5"/>
</svg>
